<svg width="596" height="293" viewBox="0 0 596 293" fill="none" xmlns="http://www.w3.org/2000/svg">
<path d="M10.9089 61.0769H0V15.3509H46.7059V61.0769H35.7316V24.8227H10.9089V61.0769Z" fill="black"/>
<path d="M93.5373 15.3509H105.295L86.5477 49.1228C84.0655 53.6083 81.409 56.8309 78.5783 58.7906C75.7477 60.7503 72.3509 61.7301 68.388 61.7301C65.9492 61.7301 63.5541 61.4035 61.2024 60.7503V51.2785C63.2057 51.8011 65.1218 52.0624 66.9509 52.0624C69.0412 52.0624 70.8267 51.6922 72.3073 50.9519C73.788 50.168 74.9856 48.9269 75.9001 47.2285L76.0961 46.8365L54.9968 15.3509H67.6694L81.8445 37.626H82.1711L93.5373 15.3509Z" fill="black"/>
<path d="M181.695 61.0769H112.975V15.3509H123.884V51.6051H141.848V15.3509H152.822V51.6051H170.786V15.3509H181.695V61.0769Z" fill="black"/>
<path d="M206.048 61.0769H195.139V15.3509H206.048V35.9929L228.715 15.3509H242.303L221.726 34.0986L243.609 61.0769H230.74L214.279 40.8268L206.048 48.3389V61.0769Z" fill="black"/>
<path d="M260.444 61.0769H250.319V15.3509H261.228V45.726H261.49L288.86 15.3509H298.985V61.0769H288.011V30.7018H287.749L260.444 61.0769Z" fill="black"/>
<path d="M323.298 61.0769H312.389V15.3509H323.298V33.1187H348.643V15.3509H359.552V61.0769H348.643V42.5905H323.298V61.0769Z" fill="black"/>
<path d="M398.467 62.0568C392.806 62.0568 387.776 60.9898 383.378 58.8559C379.023 56.7221 375.648 53.8478 373.252 50.2333C370.901 46.5752 369.725 42.5688 369.725 38.2139C369.725 33.859 370.901 29.8743 373.252 26.2598C375.648 22.6017 379.023 19.7057 383.378 17.5719C387.776 15.438 392.806 14.371 398.467 14.371C403.475 14.371 407.895 15.2202 411.728 16.9186C415.56 18.5735 418.739 20.642 421.265 23.1243L414.537 29.6566C412.054 27.6969 409.528 26.2163 406.959 25.2146C404.433 24.1695 401.603 23.6469 398.467 23.6469C395.114 23.6469 392.087 24.2783 389.387 25.5413C386.731 26.7606 384.64 28.4808 383.116 30.7018C381.592 32.9227 380.83 35.4268 380.83 38.2139C380.83 41.001 381.592 43.5051 383.116 45.726C384.64 47.9035 386.731 49.6236 389.387 50.8865C392.087 52.1059 395.114 52.7156 398.467 52.7156C401.69 52.7156 404.586 52.2148 407.155 51.2132C409.768 50.168 412.294 48.6002 414.732 46.5099L421.526 53.1075C419 55.6333 415.778 57.7672 411.858 59.5092C407.939 61.2076 403.475 62.0568 398.467 62.0568Z" fill="black"/>
<path d="M440.994 61.0769H430.085V15.3509H440.994V35.9929L463.661 15.3509H477.248L456.671 34.0986L478.554 61.0769H465.686L449.225 40.8268L440.994 48.3389V61.0769Z" fill="black"/>
<path d="M495.39 61.0769H485.265V15.3509H496.174V45.726H496.435L523.805 15.3509H533.93V61.0769H522.956V30.7018H522.695L495.39 61.0769Z" fill="black"/>
<path d="M557.459 61.0769H547.334V15.3509H558.243V45.726H558.505L585.875 15.3509H596V61.0769H585.026V30.7018H584.764L557.459 61.0769ZM571.7 10.7783C569.13 10.7783 566.866 10.321 564.906 9.4065C562.947 8.49198 561.422 7.22907 560.334 5.61777C559.245 3.96292 558.701 2.09033 558.701 0H566.605C566.648 1.13226 567.106 2.15566 567.977 3.07018C568.847 3.94115 570.089 4.37664 571.7 4.37664C573.268 4.37664 574.487 3.94115 575.358 3.07018C576.229 2.15566 576.708 1.13226 576.795 0H584.634C584.634 2.09033 584.089 3.96292 583.001 5.61777C581.956 7.22907 580.453 8.49198 578.493 9.4065C576.534 10.321 574.269 10.7783 571.7 10.7783Z" fill="black"/>
<path d="M172.462 136.877H161.553V91.1513H171.874L190.622 111.271H190.818L209.5 91.1513H219.69V136.877H208.716V105.849H208.52L190.622 125.054L172.658 105.849H172.462V136.877Z" fill="black"/>
<path d="M266.509 91.1513H278.267L259.519 124.923C257.037 129.409 254.381 132.631 251.55 134.591C248.719 136.551 245.323 137.531 241.36 137.531C238.921 137.531 236.526 137.204 234.174 136.551V127.079C236.177 127.601 238.094 127.863 239.923 127.863C242.013 127.863 243.798 127.493 245.279 126.752C246.76 125.968 247.957 124.727 248.872 123.029L249.068 122.637L227.969 91.1513H240.641L254.816 113.426H255.143L266.509 91.1513Z" fill="black"/>
<path d="M301.778 137.857C296.814 137.857 292.459 137.073 288.714 135.506C284.969 133.894 282.094 132.109 280.091 130.149L286.297 123.551C287.734 124.901 289.715 126.077 292.241 127.079C294.811 128.037 297.772 128.516 301.125 128.516C304.696 128.516 307.352 128.015 309.094 127.014C310.88 126.012 311.773 124.727 311.773 123.159C311.773 119.458 308.332 117.607 301.452 117.607H293.286V108.919H300.994C304.13 108.919 306.46 108.484 307.984 107.613C309.508 106.742 310.27 105.609 310.27 104.216C310.27 102.866 309.421 101.734 307.723 100.819C306.068 99.9045 303.76 99.4473 300.798 99.4473C298.011 99.4473 295.573 99.8174 293.482 100.558C291.435 101.298 289.519 102.278 287.734 103.497L281.594 96.8997C283.597 95.2448 286.297 93.7206 289.694 92.3271C293.134 90.89 297.119 90.1714 301.648 90.1714C305.828 90.1714 309.421 90.7376 312.426 91.8698C315.474 92.9585 317.782 94.461 319.35 96.3771C320.918 98.2497 321.702 100.362 321.702 102.713C321.702 105.413 320.853 107.634 319.154 109.376C317.499 111.075 315.627 112.185 313.536 112.708C316.019 113.361 318.24 114.689 320.199 116.693C322.203 118.652 323.204 121.069 323.204 123.943C323.204 126.556 322.399 128.93 320.787 131.064C319.176 133.154 316.759 134.809 313.536 136.028C310.314 137.247 306.394 137.857 301.778 137.857Z" fill="black"/>
<path d="M375.008 136.877H333.855V91.1513H374.355V100.296H344.764V109.115H367.823V117.934H344.764V127.732H375.008V136.877Z" fill="black"/>
<path d="M395.906 136.877H385.781V91.1513H396.69V121.526H396.952L424.322 91.1513H434.447V136.877H423.473V106.502H423.211L395.906 136.877ZM410.147 86.5787C407.578 86.5787 405.313 86.1214 403.353 85.2069C401.394 84.2924 399.869 83.0294 398.781 81.4182C397.692 79.7633 397.148 77.8907 397.148 75.8004H405.052C405.095 76.9326 405.553 77.956 406.423 78.8706C407.294 79.7415 408.536 80.177 410.147 80.177C411.715 80.177 412.934 79.7415 413.805 78.8706C414.676 77.956 415.155 76.9326 415.242 75.8004H423.081C423.081 77.8907 422.536 79.7633 421.448 81.4182C420.403 83.0294 418.9 84.2924 416.94 85.2069C414.981 86.1214 412.716 86.5787 410.147 86.5787Z" fill="black"/>
<path fill-rule="evenodd" clip-rule="evenodd" d="M240.879 292.631V162.857H355.119V292.631H328.6V171.749H267.398V292.631H240.879Z" fill="black"/>
<path fill-rule="evenodd" clip-rule="evenodd" d="M190.244 292.631V162.857H215.404L298.08 260.957L380.756 162.857H405.756V292.631H379.237V179.817L302.992 271.372L293.156 271.354L216.763 179.608V292.631H190.244Z" fill="black"/>
</svg>
